<svg width="100" height="100" viewBox="0 0 100 100" fill="none" xmlns="http://www.w3.org/2000/svg">
<g clip-path="url(#clip0_209_94)">
<path d="M88 0H12C5.37258 0 0 5.37258 0 12V88C0 94.6274 5.37258 100 12 100H88C94.6274 100 100 94.6274 100 88V12C100 5.37258 94.6274 0 88 0Z" fill="#1F2937"/>
<g clip-path="url(#clip1_209_94)">
<mask id="mask0_209_94" style="mask-type:luminance" maskUnits="userSpaceOnUse" x="15" y="21" width="70" height="58">
<path d="M84.9976 21.7926H15V78.5183H84.9976V21.7926Z" fill="white"/>
</mask>
<g mask="url(#mask0_209_94)">
<path d="M67.4309 48.8632L52.3683 37.545L49.1224 35.1094L43.8164 31.1288L31.5816 21.7926L15 33.7227V50.3043L31.5816 38.3742L32.6376 39.168L50.7713 52.7824L84.048 77.7765L85 78.4829V62.0501L67.4333 48.8632H67.4309Z" fill="white"/>
<path d="M64.6488 42.8059L67.4317 40.7979V44.899L69.4917 46.444L85.0008 58.0953V34.5777L67.4317 21.9413L56.8458 29.56L52.369 32.7799L51.8115 33.1721L54.4196 35.1258L64.6464 42.8059H64.6488Z" fill="white"/>
<path d="M34.0976 44.9606L31.3383 46.9497V42.877H31.3359L15 54.6228V78.5183L47.5419 55.1118L34.0976 44.9606Z" fill="white"/>
</g>
</g>
</g>
<defs>
<clipPath id="clip0_209_94">
<rect width="100" height="100" fill="white"/>
</clipPath>
<clipPath id="clip1_209_94">
<rect width="70" height="56.7257" fill="white" transform="translate(15 21.7926)"/>
</clipPath>
</defs>
</svg>
